<mxfile host="app.diagrams.net" agent="Mozilla/5.0 (Windows NT 10.0; Win64; x64) AppleWebKit/537.36 (KHTML, like Gecko) Chrome/138.0.0.0 Safari/537.36 SberBrowser/30.0.0.0" version="28.1.1">
  <diagram name="Страница — 1" id="jU0MxfGtbrjNp78Rc_KM">
    <mxGraphModel dx="1542" dy="1024" grid="1" gridSize="10" guides="1" tooltips="1" connect="1" arrows="1" fold="1" page="1" pageScale="1" pageWidth="1169" pageHeight="827" math="0" shadow="0">
      <root>
        <mxCell id="0" />
        <mxCell id="1" parent="0" />
        <mxCell id="cVac4PQOobGEPyHDXU9r-51" value="Id" style="ellipse;whiteSpace=wrap;html=1;fontStyle=4" vertex="1" parent="1">
          <mxGeometry x="45" y="502" width="120" height="40" as="geometry" />
        </mxCell>
        <mxCell id="cVac4PQOobGEPyHDXU9r-1" value="Предприятие" style="text;html=1;align=center;verticalAlign=middle;whiteSpace=wrap;rounded=0;fontSize=23;" vertex="1" parent="1">
          <mxGeometry x="490" y="40" width="130" height="30" as="geometry" />
        </mxCell>
        <mxCell id="cVac4PQOobGEPyHDXU9r-2" value="&lt;font style=&quot;font-size: 16px;&quot;&gt;Нотация Чена&lt;/font&gt;" style="text;html=1;align=center;verticalAlign=middle;whiteSpace=wrap;rounded=0;fontSize=18;" vertex="1" parent="1">
          <mxGeometry x="210" y="70" width="130" height="30" as="geometry" />
        </mxCell>
        <mxCell id="cVac4PQOobGEPyHDXU9r-3" value="&lt;font style=&quot;font-size: 16px;&quot;&gt;Нотация Мартина&lt;/font&gt;" style="text;html=1;align=center;verticalAlign=middle;whiteSpace=wrap;rounded=0;fontSize=18;" vertex="1" parent="1">
          <mxGeometry x="750" y="60" width="190" height="30" as="geometry" />
        </mxCell>
        <mxCell id="cVac4PQOobGEPyHDXU9r-4" value="Сотрудник" style="rounded=1;whiteSpace=wrap;html=1;" vertex="1" parent="1">
          <mxGeometry x="235" y="336" width="150" height="50" as="geometry" />
        </mxCell>
        <mxCell id="cVac4PQOobGEPyHDXU9r-5" value="" style="edgeStyle=orthogonalEdgeStyle;rounded=0;orthogonalLoop=1;jettySize=auto;html=1;endArrow=none;endFill=0;" edge="1" parent="1" source="cVac4PQOobGEPyHDXU9r-6" target="cVac4PQOobGEPyHDXU9r-4">
          <mxGeometry relative="1" as="geometry">
            <Array as="points">
              <mxPoint x="195" y="316" />
              <mxPoint x="195" y="361" />
            </Array>
          </mxGeometry>
        </mxCell>
        <mxCell id="cVac4PQOobGEPyHDXU9r-6" value="Id" style="ellipse;whiteSpace=wrap;html=1;fontStyle=4" vertex="1" parent="1">
          <mxGeometry x="45" y="296" width="120" height="40" as="geometry" />
        </mxCell>
        <mxCell id="cVac4PQOobGEPyHDXU9r-7" value="" style="edgeStyle=orthogonalEdgeStyle;rounded=0;orthogonalLoop=1;jettySize=auto;html=1;endArrow=none;endFill=0;" edge="1" parent="1" source="cVac4PQOobGEPyHDXU9r-8" target="cVac4PQOobGEPyHDXU9r-4">
          <mxGeometry relative="1" as="geometry">
            <Array as="points">
              <mxPoint x="195" y="346" />
              <mxPoint x="195" y="361" />
            </Array>
          </mxGeometry>
        </mxCell>
        <mxCell id="cVac4PQOobGEPyHDXU9r-8" value="ФИО" style="ellipse;whiteSpace=wrap;html=1;fontStyle=0" vertex="1" parent="1">
          <mxGeometry x="45" y="326" width="120" height="40" as="geometry" />
        </mxCell>
        <mxCell id="cVac4PQOobGEPyHDXU9r-9" value="" style="edgeStyle=orthogonalEdgeStyle;rounded=0;orthogonalLoop=1;jettySize=auto;html=1;endArrow=none;endFill=0;" edge="1" parent="1" source="cVac4PQOobGEPyHDXU9r-10" target="cVac4PQOobGEPyHDXU9r-4">
          <mxGeometry relative="1" as="geometry">
            <Array as="points">
              <mxPoint x="195" y="376" />
              <mxPoint x="195" y="361" />
            </Array>
          </mxGeometry>
        </mxCell>
        <mxCell id="cVac4PQOobGEPyHDXU9r-10" value="Дата рождения" style="ellipse;whiteSpace=wrap;html=1;fontStyle=0" vertex="1" parent="1">
          <mxGeometry x="45" y="356" width="120" height="40" as="geometry" />
        </mxCell>
        <mxCell id="cVac4PQOobGEPyHDXU9r-11" value="" style="edgeStyle=orthogonalEdgeStyle;rounded=0;orthogonalLoop=1;jettySize=auto;html=1;endArrow=none;endFill=0;" edge="1" parent="1" source="cVac4PQOobGEPyHDXU9r-12" target="cVac4PQOobGEPyHDXU9r-4">
          <mxGeometry relative="1" as="geometry">
            <Array as="points">
              <mxPoint x="195" y="406" />
              <mxPoint x="195" y="361" />
            </Array>
          </mxGeometry>
        </mxCell>
        <mxCell id="cVac4PQOobGEPyHDXU9r-12" value="Образование" style="ellipse;whiteSpace=wrap;html=1;fontStyle=0" vertex="1" parent="1">
          <mxGeometry x="45" y="386" width="120" height="40" as="geometry" />
        </mxCell>
        <mxCell id="cVac4PQOobGEPyHDXU9r-13" value="" style="edgeStyle=orthogonalEdgeStyle;rounded=0;orthogonalLoop=1;jettySize=auto;html=1;endArrow=none;endFill=0;" edge="1" parent="1" source="cVac4PQOobGEPyHDXU9r-16" target="cVac4PQOobGEPyHDXU9r-17">
          <mxGeometry relative="1" as="geometry">
            <Array as="points">
              <mxPoint x="215" y="582" />
              <mxPoint x="215" y="476" />
            </Array>
          </mxGeometry>
        </mxCell>
        <mxCell id="cVac4PQOobGEPyHDXU9r-14" value="" style="rounded=0;orthogonalLoop=1;jettySize=auto;html=1;endArrow=none;endFill=0;edgeStyle=orthogonalEdgeStyle;" edge="1" parent="1" source="cVac4PQOobGEPyHDXU9r-15" target="cVac4PQOobGEPyHDXU9r-17">
          <mxGeometry relative="1" as="geometry">
            <mxPoint x="-45" y="487" as="sourcePoint" />
            <mxPoint x="25" y="442" as="targetPoint" />
            <Array as="points">
              <mxPoint x="215" y="552" />
              <mxPoint x="215" y="476" />
            </Array>
          </mxGeometry>
        </mxCell>
        <mxCell id="cVac4PQOobGEPyHDXU9r-15" value="Дата назначения" style="ellipse;whiteSpace=wrap;html=1;fontStyle=0" vertex="1" parent="1">
          <mxGeometry x="46" y="532" width="120" height="40" as="geometry" />
        </mxCell>
        <mxCell id="cVac4PQOobGEPyHDXU9r-16" value="Дата освобождения" style="ellipse;whiteSpace=wrap;html=1;fontStyle=0" vertex="1" parent="1">
          <mxGeometry x="46" y="562" width="120" height="40" as="geometry" />
        </mxCell>
        <mxCell id="cVac4PQOobGEPyHDXU9r-17" value="" style="rounded=1;whiteSpace=wrap;html=1;" vertex="1" parent="1">
          <mxGeometry x="235" y="438" width="150" height="60" as="geometry" />
        </mxCell>
        <mxCell id="cVac4PQOobGEPyHDXU9r-18" value="Назначен" style="rhombus;whiteSpace=wrap;html=1;" vertex="1" parent="1">
          <mxGeometry x="235" y="438" width="150" height="60" as="geometry" />
        </mxCell>
        <mxCell id="cVac4PQOobGEPyHDXU9r-19" value="Отдел" style="rounded=1;whiteSpace=wrap;html=1;" vertex="1" parent="1">
          <mxGeometry x="235" y="716" width="150" height="50" as="geometry" />
        </mxCell>
        <mxCell id="cVac4PQOobGEPyHDXU9r-20" value="Id" style="ellipse;whiteSpace=wrap;html=1;fontStyle=4" vertex="1" parent="1">
          <mxGeometry x="465" y="706" width="120" height="40" as="geometry" />
        </mxCell>
        <mxCell id="cVac4PQOobGEPyHDXU9r-21" value="Номер" style="ellipse;whiteSpace=wrap;html=1;fontStyle=0" vertex="1" parent="1">
          <mxGeometry x="465" y="736" width="120" height="40" as="geometry" />
        </mxCell>
        <mxCell id="cVac4PQOobGEPyHDXU9r-23" value="" style="edgeStyle=orthogonalEdgeStyle;rounded=0;orthogonalLoop=1;jettySize=auto;html=1;endArrow=none;endFill=0;" edge="1" parent="1" source="cVac4PQOobGEPyHDXU9r-21" target="cVac4PQOobGEPyHDXU9r-19">
          <mxGeometry relative="1" as="geometry">
            <Array as="points">
              <mxPoint x="415" y="756" />
              <mxPoint x="415" y="741" />
            </Array>
          </mxGeometry>
        </mxCell>
        <mxCell id="cVac4PQOobGEPyHDXU9r-25" value="" style="rounded=0;orthogonalLoop=1;jettySize=auto;html=1;endArrow=none;endFill=0;edgeStyle=orthogonalEdgeStyle;" edge="1" parent="1" source="cVac4PQOobGEPyHDXU9r-20" target="cVac4PQOobGEPyHDXU9r-19">
          <mxGeometry relative="1" as="geometry">
            <mxPoint x="305" y="696" as="sourcePoint" />
            <mxPoint x="350" y="786" as="targetPoint" />
            <Array as="points">
              <mxPoint x="415" y="726" />
              <mxPoint x="415" y="741" />
            </Array>
          </mxGeometry>
        </mxCell>
        <mxCell id="cVac4PQOobGEPyHDXU9r-26" value="1&lt;span style=&quot;color: rgba(0, 0, 0, 0); font-family: monospace; font-size: 0px; text-align: start; background-color: rgb(236, 236, 236);&quot;&gt;%3CmxGraphModel%3E%3Croot%3E%3CmxCell%20id%3D%220%22%2F%3E%3CmxCell%20id%3D%221%22%20parent%3D%220%22%2F%3E%3CmxCell%20id%3D%222%22%20value%3D%22N%26lt%3Bspan%20style%3D%26quot%3Bcolor%3A%20rgba(0%2C%200%2C%200%2C%200)%3B%20font-family%3A%20monospace%3B%20font-size%3A%200px%3B%20text-align%3A%20start%3B%20background-color%3A%20rgb(236%2C%20236%2C%20236)%3B%26quot%3B%26gt%3B%253CmxGraphModel%253E%253Croot%253E%253CmxCell%2520id%253D%25220%2522%252F%253E%253CmxCell%2520id%253D%25221%2522%2520parent%253D%25220%2522%252F%253E%253CmxCell%2520id%253D%25222%2522%2520value%253D%2522%25D0%259B%25D0%25B5%25D0%25BA%25D0%25B0%25D1%2580%25D1%2581%25D1%2582%25D0%25B2%25D0%25BE%2522%2520style%253D%2522rounded%253D1%253BwhiteSpace%253Dwrap%253Bhtml%253D1%253B%2522%2520vertex%253D%25221%2522%2520parent%253D%25221%2522%253E%253CmxGeometry%2520x%253D%2522180%2522%2520y%253D%2522280%2522%2520width%253D%2522150%2522%2520height%253D%252250%2522%2520as%253D%2522geometry%2522%252F%253E%253C%252FmxCell%253E%253C%252Froot%253E%253C%252FmxGraphModel%253E%26lt%3B%2Fspan%26gt%3B%26lt%3Bspan%20style%3D%26quot%3Bcolor%3A%20rgba(0%2C%200%2C%200%2C%200)%3B%20font-family%3A%20monospace%3B%20font-size%3A%200px%3B%20text-align%3A%20start%3B%20background-color%3A%20rgb(236%2C%20236%2C%20236)%3B%26quot%3B%26gt%3B%253CmxGraphModel%253E%253Croot%253E%253CmxCell%2520id%253D%25220%2522%252F%253E%253CmxCell%2520id%253D%25221%2522%2520parent%253D%25220%2522%252F%253E%253CmxCell%2520id%253D%25222%2522%2520value%253D%2522%25D0%259B%25D0%25B5%25D0%25BA%25D0%25B0%25D1%2580%25D1%2581%25D1%2582%25D0%25B2%25D0%25BE%2522%2520style%253D%2522rounded%253D1%253BwhiteSpace%253Dwrap%253Bhtml%253D1%253B%2522%2520vertex%253D%25221%2522%2520parent%253D%25221%2522%253E%253CmxGeometry%2520x%253D%2522180%2522%2520y%253D%2522280%2522%2520width%253D%2522150%2522%2520height%253D%252250%2522%2520as%253D%2522geometry%2522%252F%253E%253C%252FmxCell%253E%253C%252Froot%253E%253C%252FmxGraphModel%253E%26lt%3B%2Fspan%26gt%3B%26lt%3Bspan%20style%3D%26quot%3Bcolor%3A%20rgba(0%2C%200%2C%200%2C%200)%3B%20font-family%3A%20monospace%3B%20font-size%3A%200px%3B%20text-align%3A%20start%3B%20background-color%3A%20rgb(236%2C%20236%2C%20236)%3B%26quot%3B%26gt%3B%253CmxGraphModel%253E%253Croot%253E%253CmxCell%2520id%253D%25220%2522%252F%253E%253CmxCell%2520id%253D%25221%2522%2520parent%253D%25220%2522%252F%253E%253CmxCell%2520id%253D%25222%2522%2520value%253D%2522%25D0%259B%25D0%25B5%25D0%25BA%25D0%25B0%25D1%2580%25D1%2581%25D1%2582%25D0%25B2%25D0%25BE%2522%2520style%253D%2522rounded%253D1%253BwhiteSpace%253Dwrap%253Bhtml%253D1%253B%2522%2520vertex%253D%25221%2522%2520parent%253D%25221%2522%253E%253CmxGeometry%2520x%253D%2522180%2522%2520y%253D%2522280%2522%2520width%253D%2522150%2522%2520height%253D%252250%2522%2520as%253D%2522geometry%2522%252F%253E%253C%252FmxCell%253E%253C%252Froot%253E%253C%252FmxGraphModel%253E%26lt%3B%2Fspan%26gt%3B%22%20style%3D%22edgeStyle%3DorthogonalEdgeStyle%3Brounded%3D0%3BorthogonalLoop%3D1%3BjettySize%3Dauto%3Bhtml%3D1%3BendArrow%3Dnone%3BendFill%3D0%3B%22%20edge%3D%221%22%20parent%3D%221%22%3E%3CmxGeometry%20relative%3D%221%22%20as%3D%22geometry%22%3E%3CmxPoint%20x%3D%22255%22%20y%3D%22460%22%20as%3D%22sourcePoint%22%2F%3E%3CmxPoint%20x%3D%22255%22%20y%3D%22330%22%20as%3D%22targetPoint%22%2F%3E%3C%2FmxGeometry%3E%3C%2FmxCell%3E%3C%2Froot%3E%3C%2FmxGraphModel%3E&lt;/span&gt;" style="edgeStyle=orthogonalEdgeStyle;rounded=0;orthogonalLoop=1;jettySize=auto;html=1;endArrow=none;endFill=0;" edge="1" parent="1" target="cVac4PQOobGEPyHDXU9r-19" source="cVac4PQOobGEPyHDXU9r-36">
          <mxGeometry relative="1" as="geometry">
            <mxPoint x="585" y="220" as="sourcePoint" />
            <mxPoint x="445" y="270" as="targetPoint" />
          </mxGeometry>
        </mxCell>
        <mxCell id="cVac4PQOobGEPyHDXU9r-27" value="Должность" style="rounded=1;whiteSpace=wrap;html=1;" vertex="1" parent="1">
          <mxGeometry x="235" y="546" width="150" height="50" as="geometry" />
        </mxCell>
        <mxCell id="cVac4PQOobGEPyHDXU9r-28" value="Id" style="ellipse;whiteSpace=wrap;html=1;fontStyle=4" vertex="1" parent="1">
          <mxGeometry x="465" y="536" width="120" height="40" as="geometry" />
        </mxCell>
        <mxCell id="cVac4PQOobGEPyHDXU9r-29" value="Наименование" style="ellipse;whiteSpace=wrap;html=1;fontStyle=0" vertex="1" parent="1">
          <mxGeometry x="465" y="566" width="120" height="40" as="geometry" />
        </mxCell>
        <mxCell id="cVac4PQOobGEPyHDXU9r-30" value="" style="edgeStyle=orthogonalEdgeStyle;rounded=0;orthogonalLoop=1;jettySize=auto;html=1;endArrow=none;endFill=0;" edge="1" parent="1" source="cVac4PQOobGEPyHDXU9r-29" target="cVac4PQOobGEPyHDXU9r-27">
          <mxGeometry relative="1" as="geometry">
            <Array as="points">
              <mxPoint x="415" y="586" />
              <mxPoint x="415" y="571" />
            </Array>
            <mxPoint x="465" y="586" as="sourcePoint" />
          </mxGeometry>
        </mxCell>
        <mxCell id="cVac4PQOobGEPyHDXU9r-31" value="" style="rounded=0;orthogonalLoop=1;jettySize=auto;html=1;endArrow=none;endFill=0;edgeStyle=orthogonalEdgeStyle;" edge="1" parent="1" source="cVac4PQOobGEPyHDXU9r-28" target="cVac4PQOobGEPyHDXU9r-27">
          <mxGeometry relative="1" as="geometry">
            <mxPoint x="305" y="526" as="sourcePoint" />
            <mxPoint x="350" y="616" as="targetPoint" />
            <Array as="points">
              <mxPoint x="415" y="556" />
              <mxPoint x="415" y="571" />
            </Array>
          </mxGeometry>
        </mxCell>
        <mxCell id="cVac4PQOobGEPyHDXU9r-32" value="ВУЗ" style="ellipse;whiteSpace=wrap;html=1;fontStyle=0" vertex="1" parent="1">
          <mxGeometry x="45" y="415" width="120" height="40" as="geometry" />
        </mxCell>
        <mxCell id="cVac4PQOobGEPyHDXU9r-33" value="Стаж" style="ellipse;whiteSpace=wrap;html=1;fontStyle=0" vertex="1" parent="1">
          <mxGeometry x="45" y="442" width="120" height="40" as="geometry" />
        </mxCell>
        <mxCell id="cVac4PQOobGEPyHDXU9r-34" value="" style="edgeStyle=orthogonalEdgeStyle;rounded=0;orthogonalLoop=1;jettySize=auto;html=1;endArrow=none;endFill=0;" edge="1" parent="1" source="cVac4PQOobGEPyHDXU9r-32" target="cVac4PQOobGEPyHDXU9r-4">
          <mxGeometry relative="1" as="geometry">
            <Array as="points">
              <mxPoint x="195" y="435" />
              <mxPoint x="195" y="361" />
            </Array>
            <mxPoint x="245" y="487" as="sourcePoint" />
            <mxPoint x="315" y="442" as="targetPoint" />
          </mxGeometry>
        </mxCell>
        <mxCell id="cVac4PQOobGEPyHDXU9r-35" value="" style="edgeStyle=orthogonalEdgeStyle;rounded=0;orthogonalLoop=1;jettySize=auto;html=1;endArrow=none;endFill=0;" edge="1" parent="1" source="cVac4PQOobGEPyHDXU9r-33" target="cVac4PQOobGEPyHDXU9r-4">
          <mxGeometry relative="1" as="geometry">
            <Array as="points">
              <mxPoint x="195" y="462" />
              <mxPoint x="195" y="361" />
            </Array>
            <mxPoint x="185" y="506" as="sourcePoint" />
            <mxPoint x="255" y="432" as="targetPoint" />
          </mxGeometry>
        </mxCell>
        <mxCell id="cVac4PQOobGEPyHDXU9r-36" value="Имеется" style="rhombus;whiteSpace=wrap;html=1;" vertex="1" parent="1">
          <mxGeometry x="235" y="626" width="150" height="60" as="geometry" />
        </mxCell>
        <mxCell id="cVac4PQOobGEPyHDXU9r-37" value="N" style="edgeStyle=orthogonalEdgeStyle;rounded=0;orthogonalLoop=1;jettySize=auto;html=1;endArrow=none;endFill=0;" edge="1" parent="1" source="cVac4PQOobGEPyHDXU9r-27" target="cVac4PQOobGEPyHDXU9r-36">
          <mxGeometry relative="1" as="geometry">
            <mxPoint x="565" y="244" as="sourcePoint" />
            <mxPoint x="565" y="190" as="targetPoint" />
            <Array as="points" />
          </mxGeometry>
        </mxCell>
        <mxCell id="cVac4PQOobGEPyHDXU9r-38" value="" style="edgeStyle=orthogonalEdgeStyle;rounded=0;orthogonalLoop=1;jettySize=auto;html=1;endArrow=none;endFill=0;" edge="1" parent="1" source="cVac4PQOobGEPyHDXU9r-41" target="cVac4PQOobGEPyHDXU9r-42">
          <mxGeometry relative="1" as="geometry">
            <Array as="points">
              <mxPoint x="205" y="224" />
              <mxPoint x="205" y="156" />
            </Array>
          </mxGeometry>
        </mxCell>
        <mxCell id="cVac4PQOobGEPyHDXU9r-39" value="" style="rounded=0;orthogonalLoop=1;jettySize=auto;html=1;endArrow=none;endFill=0;edgeStyle=orthogonalEdgeStyle;" edge="1" parent="1" source="cVac4PQOobGEPyHDXU9r-40" target="cVac4PQOobGEPyHDXU9r-42">
          <mxGeometry relative="1" as="geometry">
            <mxPoint x="-55" y="179" as="sourcePoint" />
            <mxPoint x="15" y="134" as="targetPoint" />
            <Array as="points">
              <mxPoint x="205" y="192" />
              <mxPoint x="205" y="155" />
            </Array>
          </mxGeometry>
        </mxCell>
        <mxCell id="cVac4PQOobGEPyHDXU9r-42" value="Отсутствие" style="rounded=1;whiteSpace=wrap;html=1;" vertex="1" parent="1">
          <mxGeometry x="235" y="130" width="150" height="50" as="geometry" />
        </mxCell>
        <mxCell id="cVac4PQOobGEPyHDXU9r-44" value="Id" style="ellipse;whiteSpace=wrap;html=1;fontStyle=4" vertex="1" parent="1">
          <mxGeometry x="47" y="110" width="120" height="40" as="geometry" />
        </mxCell>
        <mxCell id="cVac4PQOobGEPyHDXU9r-45" value="Тип (отпуск/болезнь)" style="ellipse;whiteSpace=wrap;html=1;fontStyle=0" vertex="1" parent="1">
          <mxGeometry x="45" y="140" width="120" height="40" as="geometry" />
        </mxCell>
        <mxCell id="cVac4PQOobGEPyHDXU9r-40" value="Дата начала" style="ellipse;whiteSpace=wrap;html=1;fontStyle=0" vertex="1" parent="1">
          <mxGeometry x="46" y="172" width="120" height="40" as="geometry" />
        </mxCell>
        <mxCell id="cVac4PQOobGEPyHDXU9r-41" value="Дата окончания" style="ellipse;whiteSpace=wrap;html=1;fontStyle=0" vertex="1" parent="1">
          <mxGeometry x="47" y="204" width="120" height="40" as="geometry" />
        </mxCell>
        <mxCell id="cVac4PQOobGEPyHDXU9r-46" value="N" style="edgeStyle=orthogonalEdgeStyle;rounded=0;orthogonalLoop=1;jettySize=auto;html=1;endArrow=none;endFill=0;" edge="1" parent="1" source="cVac4PQOobGEPyHDXU9r-47" target="cVac4PQOobGEPyHDXU9r-42">
          <mxGeometry relative="1" as="geometry">
            <mxPoint x="365" y="221" as="sourcePoint" />
            <mxPoint x="310" y="181" as="targetPoint" />
          </mxGeometry>
        </mxCell>
        <mxCell id="cVac4PQOobGEPyHDXU9r-47" value="Находится" style="rhombus;whiteSpace=wrap;html=1;" vertex="1" parent="1">
          <mxGeometry x="235" y="231" width="150" height="60" as="geometry" />
        </mxCell>
        <mxCell id="cVac4PQOobGEPyHDXU9r-48" value="1" style="edgeStyle=orthogonalEdgeStyle;rounded=0;orthogonalLoop=1;jettySize=auto;html=1;endArrow=none;endFill=0;" edge="1" parent="1" target="cVac4PQOobGEPyHDXU9r-47" source="cVac4PQOobGEPyHDXU9r-4">
          <mxGeometry relative="1" as="geometry">
            <mxPoint x="305" y="346" as="sourcePoint" />
            <mxPoint x="345" y="191" as="targetPoint" />
            <Array as="points" />
          </mxGeometry>
        </mxCell>
        <mxCell id="cVac4PQOobGEPyHDXU9r-49" value="N" style="edgeStyle=orthogonalEdgeStyle;rounded=0;orthogonalLoop=1;jettySize=auto;html=1;endArrow=none;endFill=0;" edge="1" parent="1" source="cVac4PQOobGEPyHDXU9r-17" target="cVac4PQOobGEPyHDXU9r-4">
          <mxGeometry relative="1" as="geometry">
            <mxPoint x="305" y="237" as="sourcePoint" />
            <mxPoint x="305" y="186" as="targetPoint" />
          </mxGeometry>
        </mxCell>
        <mxCell id="cVac4PQOobGEPyHDXU9r-50" value="N" style="edgeStyle=orthogonalEdgeStyle;rounded=0;orthogonalLoop=1;jettySize=auto;html=1;endArrow=none;endFill=0;" edge="1" parent="1" source="cVac4PQOobGEPyHDXU9r-17" target="cVac4PQOobGEPyHDXU9r-27">
          <mxGeometry relative="1" as="geometry">
            <mxPoint x="305" y="448" as="sourcePoint" />
            <mxPoint x="305" y="396" as="targetPoint" />
          </mxGeometry>
        </mxCell>
        <mxCell id="cVac4PQOobGEPyHDXU9r-52" value="" style="edgeStyle=orthogonalEdgeStyle;rounded=0;orthogonalLoop=1;jettySize=auto;html=1;endArrow=none;endFill=0;" edge="1" parent="1" source="cVac4PQOobGEPyHDXU9r-45" target="cVac4PQOobGEPyHDXU9r-42">
          <mxGeometry relative="1" as="geometry">
            <Array as="points">
              <mxPoint x="205" y="160" />
              <mxPoint x="205" y="155" />
            </Array>
            <mxPoint x="185" y="274" as="sourcePoint" />
            <mxPoint x="253" y="206" as="targetPoint" />
          </mxGeometry>
        </mxCell>
        <mxCell id="cVac4PQOobGEPyHDXU9r-53" value="" style="edgeStyle=orthogonalEdgeStyle;rounded=0;orthogonalLoop=1;jettySize=auto;html=1;endArrow=none;endFill=0;" edge="1" parent="1" source="cVac4PQOobGEPyHDXU9r-44" target="cVac4PQOobGEPyHDXU9r-42">
          <mxGeometry relative="1" as="geometry">
            <Array as="points">
              <mxPoint x="205" y="130" />
              <mxPoint x="205" y="155" />
            </Array>
            <mxPoint x="167" y="130" as="sourcePoint" />
            <mxPoint x="237" y="125" as="targetPoint" />
          </mxGeometry>
        </mxCell>
        <mxCell id="cVac4PQOobGEPyHDXU9r-54" value="" style="rounded=0;orthogonalLoop=1;jettySize=auto;html=1;endArrow=none;endFill=0;edgeStyle=orthogonalEdgeStyle;" edge="1" parent="1" source="cVac4PQOobGEPyHDXU9r-51" target="cVac4PQOobGEPyHDXU9r-17">
          <mxGeometry relative="1" as="geometry">
            <mxPoint x="166" y="526" as="sourcePoint" />
            <mxPoint x="235" y="466" as="targetPoint" />
            <Array as="points">
              <mxPoint x="215" y="522" />
              <mxPoint x="215" y="476" />
            </Array>
          </mxGeometry>
        </mxCell>
      </root>
    </mxGraphModel>
  </diagram>
</mxfile>
